<svg width="343" height="37" viewBox="0 0 343 37" fill="none" xmlns="http://www.w3.org/2000/svg">
<mask id="mask0_52_48" style="mask-type:alpha" maskUnits="userSpaceOnUse" x="0" y="0" width="343" height="37">
<rect width="343" height="36.0542" fill="#C4C4C4"/>
</mask>
<g mask="url(#mask0_52_48)">
<path fill-rule="evenodd" clip-rule="evenodd" d="M35.3941 -28.8435C27.4292 -28.8435 20.9724 -22.3867 20.9724 -14.4218C20.9724 -6.45694 27.4292 -0.000131607 35.3941 -0.000131607H98.1907C103.542 -0.000131607 107.774 4.41232 110.847 8.79365C114.107 13.4426 119.507 16.4818 125.616 16.4818H214.289C224.245 16.4818 232.316 8.41075 232.316 -1.54535C232.316 -11.5014 224.245 -19.5725 214.289 -19.5725H151.842C147.572 -19.5725 143.949 -22.5219 140.724 -25.3196C138.194 -27.5149 134.891 -28.8435 131.278 -28.8435H35.3941Z" fill="#0E0F1B"/>
<path fill-rule="evenodd" clip-rule="evenodd" d="M306.82 -28.8438C314.785 -28.8438 321.242 -22.3869 321.242 -14.4221C321.242 -6.45718 314.785 -0.000375748 306.82 -0.000375748H244.025C238.673 -0.000375748 234.442 4.41207 231.369 8.7934C228.108 13.4424 222.709 16.4815 216.599 16.4815H127.926C117.97 16.4815 109.899 8.4105 109.899 -1.54559C109.899 -11.5017 117.97 -19.5727 127.926 -19.5727H190.372C194.642 -19.5727 198.265 -22.5221 201.49 -25.3199C204.02 -27.5151 207.323 -28.8438 210.936 -28.8438H306.82Z" fill="#0E0F1B"/>
</g>
</svg>
