<svg width="343" height="37" viewBox="0 0 343 37" fill="none" xmlns="http://www.w3.org/2000/svg">
<mask id="mask0_52_56" style="mask-type:alpha" maskUnits="userSpaceOnUse" x="0" y="0" width="343" height="37">
<rect x="343" y="36.0547" width="343" height="36.0542" transform="rotate(-180 343 36.0547)" fill="#C4C4C4"/>
</mask>
<g mask="url(#mask0_52_56)">
<path fill-rule="evenodd" clip-rule="evenodd" d="M307.606 64.8984C315.571 64.8984 322.028 58.4416 322.028 50.4768C322.028 42.5119 315.571 36.0551 307.606 36.0551L244.809 36.0551C239.458 36.0551 235.226 31.6425 232.153 27.261C228.892 22.612 223.493 19.5727 217.383 19.5727L128.71 19.5727C118.754 19.5727 110.683 27.6437 110.683 37.5998C110.683 47.5559 118.754 55.6269 128.71 55.6269L191.158 55.6269C195.428 55.6269 199.051 58.5765 202.276 61.3744C204.806 63.5698 208.109 64.8984 211.722 64.8984L307.606 64.8984Z" fill="#0E0F1B"/>
<path fill-rule="evenodd" clip-rule="evenodd" d="M36.1795 64.8984C28.2146 64.8984 21.7578 58.4416 21.7578 50.4768C21.7578 42.5119 28.2146 36.0551 36.1795 36.0551L98.9747 36.0551C104.326 36.0551 108.558 31.6425 111.631 27.261C114.891 22.612 120.291 19.5727 126.401 19.5727L215.074 19.5727C225.03 19.5727 233.101 27.6438 233.101 37.5999C233.101 47.5559 225.03 55.627 215.074 55.627L152.628 55.627C148.358 55.627 144.735 58.5765 141.51 61.3744C138.979 63.5698 135.676 64.8984 132.063 64.8984L36.1795 64.8984Z" fill="#0E0F1B"/>
</g>
</svg>
