<svg width="4" height="14" viewBox="0 0 4 14" fill="none" xmlns="http://www.w3.org/2000/svg">
<path d="M2.16406 0.4729C1.33906 0.4729 0.664062 1.1479 0.664062 1.9729C0.664062 2.7979 1.33906 3.4729 2.16406 3.4729C2.98906 3.4729 3.66406 2.7979 3.66406 1.9729C3.66406 1.1479 2.98906 0.4729 2.16406 0.4729ZM2.16406 10.9729C1.33906 10.9729 0.664062 11.6479 0.664062 12.4729C0.664062 13.2979 1.33906 13.9729 2.16406 13.9729C2.98906 13.9729 3.66406 13.2979 3.66406 12.4729C3.66406 11.6479 2.98906 10.9729 2.16406 10.9729ZM2.16406 5.7229C1.33906 5.7229 0.664062 6.3979 0.664062 7.2229C0.664062 8.0479 1.33906 8.7229 2.16406 8.7229C2.98906 8.7229 3.66406 8.0479 3.66406 7.2229C3.66406 6.3979 2.98906 5.7229 2.16406 5.7229Z" fill="#70707C"/>
</svg>
