<svg width="24" height="24" viewBox="0 0 24 24" fill="none" xmlns="http://www.w3.org/2000/svg">
<path d="M11.5135 21.6257C6.22063 21.6257 1.93018 17.3352 1.93018 12.0423C1.93018 6.74944 6.22063 2.45898 11.5135 2.45898C16.8064 2.45898 21.0968 6.74944 21.0968 12.0423C21.0968 17.3352 16.8064 21.6257 11.5135 21.6257ZM11.5135 19.709C13.5468 19.709 15.4969 18.9012 16.9347 17.4635C18.3724 16.0257 19.1802 14.0756 19.1802 12.0423C19.1802 10.009 18.3724 8.05894 16.9347 6.62117C15.4969 5.18339 13.5468 4.37565 11.5135 4.37565C9.48018 4.37565 7.53014 5.18339 6.09236 6.62117C4.65458 8.05894 3.84684 10.009 3.84684 12.0423C3.84684 14.0756 4.65458 16.0257 6.09236 17.4635C7.53014 18.9012 9.48018 19.709 11.5135 19.709ZM10.5581 15.8757L6.49184 11.8094L7.84693 10.4544L10.5581 13.1655L15.9784 7.74419L17.3344 9.09928L10.5581 15.8757Z" fill="#F5F5FF"/>
</svg>
