<svg width="130" height="34" viewBox="0 0 130 34" fill="none" xmlns="http://www.w3.org/2000/svg">
<path d="M49.2724 22.7512C49.7724 23.3317 50.1928 23.6451 50.5336 23.6915H54.4878C54.6923 23.6915 54.9423 23.5406 55.2377 23.2388C55.5559 22.937 55.715 22.67 55.715 22.4378V21.602C55.715 21.3002 55.5672 21.1376 55.2718 21.1144C54.9764 21.0912 54.1469 21.0332 52.7834 20.9403C51.4426 20.8242 50.4087 20.7313 49.6815 20.6617C48.727 20.592 47.9544 20.2554 47.3635 19.6517C46.7727 19.0249 46.4772 18.1774 46.4772 17.1095V16.0647C46.4772 15.2289 46.6818 14.5207 47.0908 13.9403C48.1589 12.3847 49.4769 11.607 51.045 11.607H54.3174C55.1809 11.607 55.999 11.874 56.7717 12.408C57.158 12.6866 57.5784 13.0813 58.0329 13.592C58.4874 14.0796 58.8056 14.5439 58.9874 14.9851L55.7831 15.9602C55.7604 15.9138 55.7263 15.8673 55.6809 15.8209C55.1809 15.2172 54.7605 14.9154 54.4196 14.9154H51.1472C50.9427 14.9154 50.795 14.9386 50.7041 14.9851C50.3859 15.1476 50.1246 15.4146 49.9201 15.7861C49.8973 15.8325 49.886 15.9486 49.886 16.1343V16.9701C49.886 17.0398 49.9314 17.1327 50.0223 17.2488C50.1132 17.3416 50.2382 17.3997 50.3973 17.4229C50.6473 17.4461 51.4313 17.5274 52.7493 17.6667C54.0674 17.7828 55.0673 17.8756 55.749 17.9453C56.7489 18.0614 57.5557 18.4212 58.1693 19.0249C58.8056 19.6053 59.1237 20.4411 59.1237 21.5323V22.5075C59.1237 23.3201 58.9078 24.0282 58.476 24.6318C58.0443 25.2819 57.533 25.8159 56.9421 26.2338C56.2376 26.7446 55.4309 27 54.5219 27H50.6359C49.7951 27 48.977 26.7214 48.1816 26.1642C47.7953 25.8856 47.3749 25.5025 46.9204 25.0149C46.4886 24.5041 46.1818 24.0282 46 23.5871L49.1701 22.6119L49.2724 22.7512Z" fill="white"/>
<path d="M82.8401 11.7811L78.2724 26.8259H74.7955L72.0344 17.3881L69.2051 26.8259H65.7282L61.2286 11.7811H64.8419L67.5689 21.4975L70.2618 11.7811H73.841L76.4658 21.4975L79.2609 11.7811H82.8401Z" fill="white"/>
<path d="M97.844 20.9751H88.6062V22.403L88.6403 22.5771C88.7994 22.8325 89.0153 23.0879 89.288 23.3433C89.5834 23.5755 89.8107 23.6915 89.9697 23.6915H93.2762C93.6171 23.6915 94.0375 23.3897 94.5375 22.7861L94.6397 22.6468L97.8099 23.6219C97.6508 24.0166 97.3213 24.4925 96.8213 25.0498C96.3441 25.5837 95.9464 25.9668 95.6283 26.199C94.8556 26.733 94.0375 27 93.174 27H89.9697C88.9926 27 88.1631 26.7562 87.4814 26.2687C86.8451 25.7811 86.2997 25.2239 85.8452 24.597C85.4134 23.9934 85.1975 23.2736 85.1975 22.4378V16.1692C85.1975 15.3566 85.4134 14.6484 85.8452 14.0448C86.2997 13.4179 86.8451 12.8607 87.4814 12.3731C88.1858 11.8624 89.0153 11.607 89.9697 11.607H93.1058C94.0603 11.607 94.8897 11.8624 95.5942 12.3731C96.2987 12.9071 96.8441 13.4643 97.2304 14.0448C97.6395 14.602 97.844 15.3101 97.844 16.1692V20.9751ZM94.4352 17.8756V16.2388C94.4352 16.1227 94.4239 16.0531 94.4011 16.0299C94.1512 15.6119 93.7762 15.2521 93.2762 14.9502C93.2308 14.927 93.1626 14.9154 93.0717 14.9154H89.9697C89.8107 14.9154 89.5834 15.0431 89.288 15.2985C89.0153 15.5307 88.7994 15.7745 88.6403 16.0299L88.6062 16.2388V17.8756H94.4352Z" fill="white"/>
<path d="M105.698 26.8259H102.255L101.846 24.1443V6H105.255V23.7612L105.698 26.8259Z" fill="white"/>
<path d="M113.554 26.8259H110.111L109.702 24.1443V6H113.111V23.7612L113.554 26.8259Z" fill="white"/>
<path d="M130 22.4378C130 23.3201 129.807 24.0282 129.421 24.5622C129.011 25.1891 128.466 25.7579 127.784 26.2687C127.103 26.7562 126.273 27 125.296 27H122.092C121.137 27 120.319 26.7562 119.637 26.2687C119.387 26.0829 119.081 25.8043 118.717 25.4328C118.353 25.0614 118.103 24.7711 117.967 24.5622C117.581 24.0282 117.388 23.3201 117.388 22.4378V16.1692C117.388 15.2869 117.581 14.5788 117.967 14.0448C118.331 13.4876 118.887 12.9303 119.637 12.3731C120.342 11.8624 121.16 11.607 122.092 11.607H125.296C126.25 11.607 127.08 11.8624 127.784 12.3731C128.489 12.9071 129.034 13.4643 129.421 14.0448C129.807 14.5788 130 15.2869 130 16.1692V22.4378ZM120.796 16.2736V22.6119C120.796 22.8673 121.171 23.2156 121.921 23.6567C121.967 23.6799 122.035 23.6915 122.126 23.6915H125.262C125.307 23.6915 125.375 23.6683 125.466 23.6219C126.194 23.204 126.569 22.8673 126.591 22.6119V16.2736C126.591 16.204 126.58 16.1343 126.557 16.0647C126.284 15.6003 125.909 15.2289 125.432 14.9502C125.387 14.927 125.33 14.9154 125.262 14.9154H122.126C122.058 14.9154 122.001 14.927 121.955 14.9502C121.455 15.2521 121.08 15.6235 120.83 16.0647L120.796 16.2736Z" fill="white"/>
<path d="M18.552 0.0692856C7.96141 -0.874806 -0.874812 7.96062 0.0692801 18.5512C0.792686 26.6696 7.33042 33.2073 15.4488 33.9307C26.0394 34.8748 34.8748 26.0394 33.9307 15.4488C33.2073 7.33043 26.6696 0.793488 18.552 0.0692856ZM18.0429 2.64821C25.112 3.14934 30.8339 8.8601 31.3494 15.9276C31.5725 18.987 30.8315 21.8647 29.4007 24.289C29.7504 22.8725 29.8651 21.3635 29.6947 19.8068C29.0477 13.8968 24.2962 9.15328 18.3847 8.52787C10.7244 7.71763 4.22806 13.7279 4.22806 21.2273C4.22806 22.2829 4.35793 23.3083 4.60013 24.2898C3.33735 22.1507 2.61235 19.6586 2.61235 17C2.61156 8.72147 9.64006 2.05308 18.0429 2.64821ZM16.5897 17.133C12.9432 17.3067 9.81773 19.8896 8.85212 23.4103C8.50158 24.6898 8.48962 25.9231 8.69995 27.0791C7.47383 25.3455 6.77432 23.2143 6.84284 20.919C6.9982 15.7229 11.1673 11.408 16.3563 11.0869C22.2487 10.722 27.1603 15.4122 27.1603 21.2281C27.1603 23.4055 26.4696 25.4235 25.2985 27.0799C25.3885 26.5875 25.4379 26.0808 25.4379 25.5622C25.4387 20.7724 21.4289 16.9028 16.5897 17.133ZM11.2215 26.3214C10.7379 22.5148 13.9534 19.2993 17.7601 19.7829C20.3541 20.1127 22.4494 22.208 22.7793 24.8021C23.2629 28.6079 20.0474 31.8234 16.2415 31.3398C13.6467 31.0108 11.5514 28.9155 11.2215 26.3214Z" fill="#FA55FF"/>
</svg>
