<svg width="24" height="23" viewBox="0 0 24 23" fill="none" xmlns="http://www.w3.org/2000/svg">
<path d="M12.6512 0.0468697C5.48698 -0.591781 -0.490466 5.38513 0.148184 12.5493C0.637547 18.0412 5.06013 22.4638 10.552 22.9531C17.7162 23.5918 23.6931 17.6149 23.0545 10.4507C22.5651 4.95882 18.1425 0.536771 12.6512 0.0468697ZM12.3068 1.79144C17.0889 2.13043 20.9596 5.99359 21.3083 10.7746C21.4592 12.8441 20.958 14.7908 19.99 16.4308C20.2266 15.4726 20.3042 14.4518 20.1889 13.3987C19.7513 9.40081 16.537 6.19193 12.538 5.76885C7.35604 5.22075 2.96148 9.28655 2.96148 14.3596C2.96148 15.0737 3.04933 15.7674 3.21317 16.4314C2.35894 14.9843 1.8685 13.2985 1.8685 11.5C1.86796 5.89982 6.62254 1.38885 12.3068 1.79144ZM11.3238 11.59C8.85701 11.7075 6.74272 13.4548 6.08952 15.8364C5.85238 16.7019 5.8443 17.5362 5.98658 18.3182C5.15714 17.1455 4.68395 15.7038 4.7303 14.1511C4.83539 10.6361 7.65569 7.71714 11.1658 7.49995C15.1519 7.25311 18.4745 10.4259 18.4745 14.3602C18.4745 15.8331 18.0072 17.1983 17.215 18.3187C17.2759 17.9857 17.3093 17.6429 17.3093 17.292C17.3098 14.0519 14.5973 11.4342 11.3238 11.59ZM7.69235 17.8057C7.36521 15.2306 9.54039 13.0554 12.1155 13.3825C13.8703 13.6057 15.2877 15.0231 15.5108 16.7779C15.838 19.3524 13.6628 21.5276 11.0882 21.2005C9.33289 20.9779 7.91547 19.5605 7.69235 17.8057Z" fill="white"/>
</svg>
