<svg width="146" height="23" viewBox="0 0 146 23" fill="none" xmlns="http://www.w3.org/2000/svg">
<path fill-rule="evenodd" clip-rule="evenodd" d="M331.659 67C343.433 67 352.978 57.4555 352.978 45.6818C352.978 33.9081 343.433 24.3636 331.659 24.3636L222.357 24.3636C214.446 24.3636 208.19 17.8411 203.648 11.3646C198.829 4.49253 190.847 2.75877e-05 181.816 2.65745e-05L27.0133 9.20793e-06C12.2962 7.55688e-06 0.365604 11.9306 0.365603 26.6477C0.365602 41.3648 12.2962 53.2954 27.0133 53.2954L135.8 53.2955C142.111 53.2955 147.467 57.6553 152.234 61.791C155.975 65.036 160.857 67 166.198 67L331.659 67Z" fill="#0E0F1B"/>
</svg>
