<svg width="88" height="24" viewBox="0 0 88 24" fill="none" xmlns="http://www.w3.org/2000/svg">
<path d="M33.3536 15.4008C33.692 15.7937 33.9766 16.0059 34.2074 16.0373H36.884C37.0225 16.0373 37.1917 15.9352 37.3917 15.7309C37.607 15.5266 37.7147 15.3458 37.7147 15.1887V14.6229C37.7147 14.4186 37.6147 14.3085 37.4147 14.2928C37.2148 14.2771 36.6533 14.2378 35.7303 14.175C34.8227 14.0964 34.1227 14.0335 33.6305 13.9864C32.9844 13.9392 32.4614 13.7113 32.0614 13.3027C31.6615 12.8784 31.4615 12.3047 31.4615 11.5818V10.8745C31.4615 10.3087 31.5999 9.8294 31.8768 9.4365C32.5998 8.3835 33.492 7.85701 34.5535 7.85701H36.7686C37.3532 7.85701 37.907 8.03775 38.43 8.39922C38.6915 8.58782 38.9761 8.85499 39.2838 9.20075C39.5914 9.53079 39.8068 9.84512 39.9299 10.1437L37.7609 10.8038C37.7455 10.7724 37.7224 10.7409 37.6916 10.7095C37.3532 10.3009 37.0686 10.0966 36.8379 10.0966H34.6227C34.4843 10.0966 34.3843 10.1123 34.3227 10.1437C34.1074 10.2537 33.9305 10.4345 33.792 10.6859C33.7766 10.7174 33.7689 10.796 33.7689 10.9217V11.4875C33.7689 11.5346 33.7997 11.5975 33.8612 11.6761C33.9228 11.7389 34.0074 11.7782 34.1151 11.7939C34.2843 11.8097 34.815 11.8647 35.7072 11.959C36.5994 12.0375 37.2763 12.1004 37.7378 12.1476C38.4146 12.2261 38.9607 12.4697 39.3761 12.8784C39.8068 13.2713 40.0222 13.8371 40.0222 14.5757V15.2358C40.0222 15.7859 39.876 16.2652 39.5838 16.6738C39.2915 17.1139 38.9454 17.4754 38.5454 17.7583C38.0685 18.104 37.5224 18.2769 36.9071 18.2769H34.2766C33.7074 18.2769 33.1536 18.0883 32.6152 17.7111C32.3537 17.5225 32.0691 17.2632 31.7614 16.9332C31.4692 16.5874 31.2615 16.2652 31.1384 15.9666L33.2844 15.3065L33.3536 15.4008Z" fill="white"/>
<path d="M56.0764 7.97488L52.9844 18.159H50.6307L48.7617 11.7704L46.8465 18.159H44.4929L41.447 7.97488H43.8929L45.7389 14.5521L47.5618 7.97488H49.9847L51.7614 14.5521L53.6535 7.97488H56.0764Z" fill="white"/>
<path d="M66.2328 14.1985H59.9796V15.1651L60.0027 15.283C60.1103 15.4558 60.2565 15.6287 60.4411 15.8016C60.6411 15.9588 60.7949 16.0373 60.9026 16.0373H63.1408C63.3716 16.0373 63.6561 15.833 63.9946 15.4244L64.0638 15.3301L66.2097 15.9902C66.1021 16.2574 65.879 16.5795 65.5406 16.9567C65.2175 17.3182 64.9483 17.5775 64.733 17.7347C64.2099 18.0962 63.6561 18.2769 63.0716 18.2769H60.9026C60.2411 18.2769 59.6796 18.1119 59.2181 17.7818C58.7874 17.4518 58.4182 17.0746 58.1105 16.6503C57.8183 16.2416 57.6721 15.7544 57.6721 15.1887V10.9453C57.6721 10.3952 57.8183 9.91584 58.1105 9.50722C58.4182 9.08288 58.7874 8.70569 59.2181 8.37565C59.695 8.02989 60.2565 7.85701 60.9026 7.85701H63.0254C63.6715 7.85701 64.233 8.02989 64.7099 8.37565C65.1868 8.73712 65.556 9.11431 65.8175 9.50722C66.0944 9.88441 66.2328 10.3638 66.2328 10.9453V14.1985ZM63.9253 12.1004V10.9924C63.9253 10.9138 63.9177 10.8667 63.9023 10.851C63.7331 10.5681 63.4792 10.3245 63.1408 10.1202C63.11 10.1044 63.0639 10.0966 63.0024 10.0966H60.9026C60.7949 10.0966 60.6411 10.183 60.4411 10.3559C60.2565 10.5131 60.1103 10.6781 60.0027 10.851L59.9796 10.9924V12.1004H63.9253Z" fill="white"/>
<path d="M71.5492 18.159H69.2186L68.9417 16.3438V4.06152H71.2492V16.0845L71.5492 18.159Z" fill="white"/>
<path d="M76.8672 18.159H74.5366L74.2597 16.3438V4.06152H76.5672V16.0845L76.8672 18.159Z" fill="white"/>
<path d="M88 15.1887C88 15.7859 87.8692 16.2652 87.6077 16.6267C87.3308 17.051 86.9616 17.4361 86.5001 17.7818C86.0386 18.1119 85.4771 18.2769 84.8157 18.2769H82.6466C82.0006 18.2769 81.4468 18.1119 80.9853 17.7818C80.8161 17.6561 80.6084 17.4675 80.3623 17.2161C80.1161 16.9646 79.9469 16.7681 79.8546 16.6267C79.5931 16.2652 79.4623 15.7859 79.4623 15.1887V10.9453C79.4623 10.348 79.5931 9.86869 79.8546 9.50722C80.1007 9.13003 80.4776 8.75284 80.9853 8.37565C81.4621 8.02989 82.0159 7.85701 82.6466 7.85701H84.8157C85.4618 7.85701 86.0232 8.02989 86.5001 8.37565C86.977 8.73712 87.3462 9.11431 87.6077 9.50722C87.8692 9.86869 88 10.348 88 10.9453V15.1887ZM81.7698 11.016V15.3065C81.7698 15.4794 82.0236 15.7152 82.5313 16.0138C82.562 16.0295 82.6082 16.0373 82.6697 16.0373H84.7926C84.8234 16.0373 84.8695 16.0216 84.931 15.9902C85.4233 15.7073 85.6771 15.4794 85.6925 15.3065V11.016C85.6925 10.9688 85.6848 10.9217 85.6694 10.8745C85.4848 10.5602 85.231 10.3087 84.908 10.1202C84.8772 10.1044 84.8387 10.0966 84.7926 10.0966H82.6697C82.6236 10.0966 82.5851 10.1044 82.5543 10.1202C82.2159 10.3245 81.9621 10.5759 81.7929 10.8745L81.7698 11.016Z" fill="white"/>
<path d="M12.5583 0.0469011C5.38926 -0.592176 -0.59218 5.38873 0.0468973 12.5577C0.536587 18.0533 4.96213 22.4788 10.4577 22.9685C17.6267 23.6076 23.6076 17.6267 22.9685 10.4577C22.4788 4.96214 18.0532 0.53713 12.5583 0.0469011ZM12.2136 1.79264C16.9989 2.13186 20.8722 5.9976 21.2211 10.7818C21.3721 12.8527 20.8706 14.8007 19.902 16.4418C20.1387 15.4829 20.2164 14.4615 20.101 13.4077C19.6631 9.40709 16.4467 6.19607 12.445 5.77271C7.25958 5.22424 2.86207 9.29276 2.86207 14.3693C2.86207 15.0838 2.94998 15.7779 3.11393 16.4423C2.25913 14.9943 1.76836 13.3074 1.76836 11.5077C1.76782 5.90376 6.52558 1.38977 12.2136 1.79264ZM11.2299 11.5978C8.76155 11.7153 6.64585 13.4638 5.99221 15.8469C5.75491 16.7131 5.74682 17.5479 5.8892 18.3305C5.05921 17.1569 4.5857 15.7143 4.63208 14.1605C4.73724 10.6432 7.55943 7.72231 11.0719 7.50497C15.0606 7.25796 18.3855 10.4329 18.3855 14.3698C18.3855 15.8437 17.9179 17.2098 17.1251 18.331C17.186 17.9977 17.2195 17.6547 17.2195 17.3036C17.22 14.0613 14.5057 11.4419 11.2299 11.5978ZM7.5961 17.8176C7.26875 15.2408 9.44539 13.0641 12.0222 13.3915C13.7782 13.6148 15.1965 15.0331 15.4198 16.7891C15.7472 19.3654 13.5705 21.542 10.9943 21.2147C9.23775 20.9919 7.81938 19.5736 7.5961 17.8176Z" fill="white"/>
</svg>
