<svg width="34" height="34" viewBox="0 0 34 34" fill="none" xmlns="http://www.w3.org/2000/svg">
<path d="M18.552 0.0692856C7.96141 -0.874806 -0.874812 7.96062 0.0692801 18.5512C0.792686 26.6696 7.33042 33.2073 15.4488 33.9307C26.0394 34.8748 34.8748 26.0394 33.9307 15.4488C33.2073 7.33043 26.6696 0.793488 18.552 0.0692856ZM18.0429 2.64821C25.112 3.14934 30.8339 8.8601 31.3494 15.9276C31.5725 18.987 30.8315 21.8647 29.4007 24.289C29.7504 22.8725 29.8651 21.3635 29.6947 19.8068C29.0477 13.8968 24.2962 9.15328 18.3847 8.52787C10.7244 7.71763 4.22806 13.7279 4.22806 21.2273C4.22806 22.2829 4.35793 23.3083 4.60013 24.2898C3.33735 22.1507 2.61235 19.6586 2.61235 17C2.61156 8.72147 9.64006 2.05308 18.0429 2.64821ZM16.5897 17.133C12.9432 17.3067 9.81773 19.8896 8.85212 23.4103C8.50158 24.6898 8.48962 25.9231 8.69995 27.0791C7.47383 25.3455 6.77432 23.2143 6.84284 20.919C6.9982 15.7229 11.1673 11.408 16.3563 11.0869C22.2487 10.722 27.1603 15.4122 27.1603 21.2281C27.1603 23.4055 26.4696 25.4235 25.2985 27.0799C25.3885 26.5875 25.4379 26.0808 25.4379 25.5622C25.4387 20.7724 21.4289 16.9028 16.5897 17.133ZM11.2215 26.3214C10.7379 22.5148 13.9534 19.2993 17.7601 19.7829C20.3541 20.1127 22.4494 22.208 22.7793 24.8021C23.2629 28.6079 20.0474 31.8234 16.2415 31.3398C13.6467 31.0108 11.5514 28.9155 11.2215 26.3214Z" fill="#FA55FF"/>
</svg>
